/* XPM */
static char *_00222c3164e4e11f6f17ba84b86a48ePDHC8lx1TLbCywhY[] = {
/* columns rows colors chars-per-pixel */
"40 40 249 2 ",
"   c #1E0101",
".  c #270702",
"X  c #2C0400",
"o  c #330701",
"O  c #3B0B02",
"+  c #351107",
"@  c #382912",
"#  c #091E2C",
"$  c #14283B",
"%  c #1B3938",
"&  c #383225",
"*  c #213A37",
"=  c #410E01",
"-  c #461B07",
";  c #491807",
":  c #4A1A06",
">  c #561B06",
",  c #4A230C",
"<  c #582409",
"1  c #492211",
"2  c #642909",
"3  c #72300C",
"4  c #75340C",
"5  c #7C360A",
"6  c #4B3C20",
"7  c #1E4B3B",
"8  c #1E573B",
"9  c #29542B",
"0  c #24463D",
"q  c #26553C",
"w  c #37573A",
"e  c #17632B",
"r  c #2B6C32",
"t  c #376939",
"y  c #3A763B",
"u  c #48502A",
"i  c #624C26",
"p  c #516A32",
"a  c #467839",
"s  c #587937",
"d  c #756E33",
"f  c #040D43",
"g  c #041A46",
"h  c #0B2847",
"j  c #102544",
"k  c #0B3843",
"l  c #173947",
"z  c #1A4646",
"x  c #1C5444",
"c  c #114D55",
"v  c #1C5855",
"b  c #264B4A",
"n  c #314F4D",
"m  c #275947",
"M  c #335946",
"N  c #235854",
"B  c #286746",
"V  c #386745",
"C  c #356B4C",
"Z  c #21724F",
"A  c #397446",
"S  c #3C7C44",
"D  c #256456",
"F  c #376B51",
"G  c #267459",
"H  c #357857",
"J  c #155B62",
"K  c #2C7364",
"L  c #446845",
"P  c #467947",
"I  c #516F51",
"U  c #5E6858",
"Y  c #647F5B",
"T  c #863A09",
"R  c #8C420D",
"E  c #92430B",
"W  c #974B0D",
"Q  c #8E4611",
"!  c #914711",
"~  c #954911",
"^  c #9B4D12",
"/  c #A6520E",
"(  c #A65613",
")  c #B45D12",
"_  c #B4610D",
"`  c #AC6415",
"'  c #B96713",
"]  c #BA7515",
"[  c #846A24",
"{  c #CE730F",
"}  c #C56912",
"|  c #C87518",
" . c #D27413",
".. c #D97914",
"X. c #E37F15",
"o. c #3B843B",
"O. c #58942E",
"+. c #478832",
"@. c #44833B",
"#. c #4A833D",
"$. c #4E8B3B",
"%. c #558739",
"&. c #4A9538",
"*. c #589639",
"=. c #678930",
"-. c #659C3A",
";. c #4CA83E",
":. c #5BA339",
">. c #68AA2D",
",. c #72B42A",
"<. c #67AA37",
"1. c #77A838",
"2. c #6AB53B",
"3. c #76B938",
"4. c #78C72A",
"5. c #7AC43A",
"6. c #3C8848",
"7. c #2D8B58",
"8. c #3A8755",
"9. c #399A5E",
"0. c #1D8C67",
"q. c #2B8666",
"w. c #3B8863",
"e. c #4A8344",
"r. c #4C8B43",
"t. c #468749",
"y. c #538D43",
"u. c #588944",
"i. c #4B9849",
"p. c #549444",
"a. c #5B9243",
"s. c #569849",
"d. c #468654",
"f. c #598B55",
"g. c #479656",
"h. c #569955",
"j. c #668C46",
"k. c #649A48",
"l. c #74964E",
"z. c #6A9A54",
"x. c #4AA44F",
"c. c #5AA749",
"v. c #5BB548",
"b. c #59A757",
"n. c #64A444",
"m. c #6BAC43",
"M. c #67A849",
"N. c #74AA46",
"B. c #6CB543",
"V. c #6CB747",
"C. c #7DBC42",
"Z. c #73B34B",
"A. c #77B94A",
"S. c #66AA54",
"D. c #68B352",
"F. c #77B456",
"G. c #409362",
"H. c #6D9568",
"J. c #50B164",
"K. c #6DB562",
"L. c #6BC54A",
"P. c #7BC747",
"I. c #66D14D",
"U. c #75C354",
"Y. c #67C360",
"T. c #84BA36",
"R. c #C6881D",
"E. c #DA8514",
"W. c #E68514",
"Q. c #E99716",
"!. c #F59913",
"~. c #EFA214",
"^. c #EDA71B",
"/. c #F2A416",
"(. c #F6AA16",
"). c #F3AC1C",
"_. c #F9B319",
"`. c #D38920",
"'. c #E8A322",
"]. c #F8B926",
"[. c #8BC730",
"{. c #87C738",
"}. c #8BD435",
"|. c #97D837",
" X c #A0DB35",
".X c #A5E928",
"XX c #A9E837",
"oX c #F9C31E",
"OX c #FCC328",
"+X c #FEC22D",
"@X c #FEC530",
"#X c #FECB33",
"$X c #F7C93A",
"%X c #FFD433",
"&X c #FCD33B",
"*X c #CBFC3B",
"=X c #FFE43B",
"-X c #85BB47",
";X c #88B758",
":X c #91B354",
">X c #8AA665",
",X c #93BA66",
"<X c #8FB273",
"1X c #88C846",
"2X c #95CA47",
"3X c #89D448",
"4X c #97D746",
"5X c #86C759",
"6X c #96CC58",
"7X c #9AD559",
"8X c #A9C84B",
"9X c #A5D846",
"0X c #A6D959",
"qX c #B4DC5C",
"wX c #9AE448",
"eX c #8DE856",
"rX c #9CE454",
"tX c #A5E741",
"yX c #B7EB49",
"uX c #BAF747",
"iX c #A6E558",
"pX c #B9E957",
"aX c #BCF555",
"sX c #95D166",
"dX c #A8CA64",
"fX c #A7DD64",
"gX c #B8DD66",
"hX c #B9D776",
"jX c #BCE66A",
"kX c #BAF167",
"lX c #F9C943",
"zX c #C5F757",
"xX c #CBF251",
"cX c #FEE845",
"vX c #FEE949",
"bX c #EDFB54",
"nX c #C9E969",
"mX c #D7F664",
"MX c #CBE775",
"NX c #D1EF71",
"BX c #EDF96F",
"VX c #FEE779",
"CX c #A1B286",
"ZX c #B1CB8B",
"AX c #CAD992",
"SX c #D4F480",
"DX c #FFEC87",
"FX c #EAF392",
"GX c #E4EEA7",
/* pixels */
"0XgX7XpX>.%.3.yX*.{.5.2X3.xXP zX{.MX,XhXjX<.}.-.j.uX*.mX|.qXpXyX{.*.4.1Xj.0X9X|.",
"4.yX|.n *.>.|.r aX3.1.{.,.0 9X2.}.3.aX4.L *.u.k. X% 8X>.pX5.9X%.-X<.C.a <.l.<.4X",
"}.S 2Xj.-XO.P $.a.n.3.a <.}.t s.3.[.S qXp 2.t.}.$.a.t.C.B.1Xo.1Xu.*.L c.tX$ 2.3.",
"1XqX$ B V.*.>.$.1XM *.2X5.M % M.y dXnX% c.*.T.s.y t H C.A.r.{.7 C.u.4.B.t n S.@.",
"B &.d.@.k.e mX9 V u.-.*.P *.e.d.r.q x U.a 1.q <.#.V * e.a.P [.t -.m.Y 9 p.% P *.",
"s # XXt *.SXL &.x xX%.p 7 1X0 0 M = = = = = = H.:Xy y P %.1.0 1X+.,XY GXe +.b N.",
"a bXl .XZ.gX2XFXU s.t XX.XP ;X-., 5 ~ ~ ~ ~ ^ 3 hXL i.#.1X*.1.O.M.pXNXa.GXC 4.k.",
"|.8 ,.j.pX&.mX1XnXY |.#.y 2Xw 1.= / > < < > / > :XZX>X2.q 2.}.j.0X4X2XjXtXCXL a.",
"S >.V h.i.XXb |.<.nXt 2X-X%.xX0 O ~ : > > : Q > T.2.sX$.3.[.u.Y c.<.4XtX}.3XS.*.",
"*.3.c.v g.t.6.p.nXb 2X,.M *Xg N.O X T 5 5 T . : P xXz n.|.y $.H t.m.3.A dXdXB <.",
"3.#.*.a t.z yXB z t.T.-.2Xb @ 4 W..._.@X%X%X=X!.< & 6.A.&.A XXN V y.A.2Xl B B.@.",
">.z p.A.V S g.$ q A N.r.}., | .. ./.#X@X@X@X@X#XQ.' , *.o.>.x e.N h.k G L.w m |.",
"q nX% &.*.z.>Xr B {.0 :.& ) | E.Q.].@X@X@X@X@X@X].'.| u q BXj m M b z b # k.5.<X",
"XXN.N.n.NX0X1XGXI m <.3.O .. .E.~.#X@X@X@X@XlXlX#X].^.O aXf.bX#.}.t V.n.<X:.1.<X",
"-.V *Xe.pX1X0X:XMX;XT.%.O .. .E./.#X@X@X@X+XDXDXlX+X$Xo |.,X:XmXS 4X1.e.XX;X7X4X",
"a .Xf aXB.1X6X4X|.k n.a . ..Q.].#X+X@X@X@X@XDXVXDXVX$X  iXf.|.B.F a.a.{.S ;XP.C.",
"3.t.L h.c.B.}.t.F.sXt O !. .Q.).@X@X@X@X@X@X_.DXDXVX+XoX> N.@.MXF -.s.C t.b S.5.",
"*.t.+.N M.A pXqXS m -.o W. .Q.).@X@X@X@X@X@XOXDXlX#X@X_.: 8X;Xx i.1Xr.y 1Xl h.i.",
"<.m H C f.s.B B Z.A %.o W. .Q.).@X@X@X@X@X@X+XVX$X@X@X_.: A d.-XV a.t.}.6.$ h.d.",
"a :.<.g v F q D $ C 1.o W. .Q.).@X@X@X@X@X@X@X+X+X@X@X_.: $ c V d.m.3.N.#.b.h D ",
"&.iXm P.F z m S C iX%.  X.(././.!.#X@X@X@X@X@X@X+X@X#X_.O M {.P m.<.6Xb V.t.r.q ",
"z.9 e.-.P z.pXm n.d 2 W.} /././.~.#X@X@X@X@X@X@X#X].~./.W.3 d P 2XZXm AX+.r.P -X",
"6XGXL c.3.1X#.xXt d 2 { /././././.~.@X@X@X@X@X@X/././.(. .2 u M.-.kXbX,XAXD m.9X",
"FX,.sXI 2Xe.1XZ.p d ^ W././.).].OX].&X&X&X&X&X&X$XlXlX_.Q.W [ >X3.4X0X,XyX>Xt.s ",
"5.tX2.7XP V M.z.1 ( .././.~.].@XvXvXvXvXvXvXvXcXVXDXDXOX_.{ W : Z.M.A.uX5.A.F.1X",
"o.6XmXl S.P.V B + ] /.~.#X#X@X@X+X+X+X+X+X+X+X+X+X+X].BXvX).` 1 P k.c.p.iXz.h.a.",
"0Xx v D.h.r.Z.= OX(././.#X#X#X%X%X%X%X%X%X%X%X%X#X#X#X+X+X#X+X_.> d.U.f.b c.t.Z.",
"6.v V k.h.c.1XO )./././.(.' } ~ - - : - : - : - ( ` ` W.W.].].^.> w.m z d.l P.9X",
"t #.A n.M.6.P O /.E.| ] ] / / R 2 = < < 2 4 O 2 ! ^ ^ ' _ `.Q.^.: @.n t.C M k.V ",
"M t yXm A.hX-X6 R.' ( E E E E R T O 4 4 R ( o T E E E E E ) | R.i H.:XZXy A b 2X",
":.zX7 3XA.1XzXhX: R ) | ' ' ' ( T X R ~ ( ) X 5 ) } } }  . .W , ,XkXgXsXZXB }.n.",
"|.B a ;X4X2.zX3X7Xu O X ..} } } | E X o o X T ..} } } ..X O p z.2X4XsXnXuX>X#.e.",
"n.3XC g.i.3Xi.3XM.jXB 2.> : : : : / ^ ^ ^ ^ / : : : : : 4Xy.a z.g.A.2XtXP.rXS.y.",
"c.v.x N b.s.8.A.6Xx 5Xe.u =.& p w 5 4 4 4 4 5 % u p s u m.C &.w.t.S.M.8.mXH D [.",
"8.U.H h G.D 2XK h H a.5X5.H f.c.t.- , , , - : m s.wXm D.V.Z rXc K h.3XH.J c D.M.",
"L.k t.rXl k G j 8.P n.h.t.l wXF S H N N Z m f.F.B.z rXs.B 3Xk P K w.f G d.a h.B ",
">Xz.z V b.;X8X8.r.d.Z.L p.M.K.p.zXx V m Z.g 3XD.r.i.P f.f.gXN p.b * i.M z F.r.,X",
"y mXi.2.s.wXf.MXl m.u.A |.<.fX3Xw 7XM.V.x mXP S.@.7X-.iXuXI jXy Z.b.8.a 0Xt 5XzX",
"0X4XV 6X4X;.pXwXK.m H 3XL.rX3XU.f.x d.c.V.g.A t.wXo.rX3X5.5XyXk.g.6.9.{.0.1X3Xx.",
"I.J v.c 7.Y.v.c.b.J.b.C D Z G.8.I.g.7.q.6.M J.h.D J 7.9.i.eXg.U.9.K F 7.q.N x.L."
};
