/* XPM */
static char *_e2f269585ea431daa39efacfa02082fIrec363Bidljz4gv[] = {
/* columns rows colors chars-per-pixel */
"40 40 255 2 ",
"   c #07020A",
".  c #090716",
"X  c #130B1D",
"o  c #0F111A",
"O  c #140A25",
"+  c #0C172E",
"@  c #161527",
"#  c #1B132B",
"$  c #1B1733",
"%  c #231C2B",
"&  c #241C35",
"*  c #1B252D",
"=  c #172F30",
"-  c #162538",
";  c #1A3A38",
":  c #262736",
">  c #2D253B",
",  c #362D3C",
"<  c #2A3032",
"1  c #293835",
"2  c #1E4F3D",
"3  c #374C37",
"4  c #26583C",
"5  c #305031",
"6  c #17622A",
"7  c #2B6D32",
"8  c #376939",
"9  c #3D763C",
"0  c #467838",
"q  c #50723A",
"w  c #09164A",
"e  c #0E2D4B",
"r  c #173A47",
"t  c #193958",
"y  c #292843",
"u  c #2E3045",
"i  c #363646",
"p  c #3B3954",
"a  c #060F73",
"s  c #103571",
"d  c #403D57",
"f  c #1A4846",
"g  c #1C5745",
"h  c #154E56",
"j  c #374847",
"k  c #285B49",
"l  c #365A46",
"z  c #274D53",
"x  c #3A4655",
"c  c #245853",
"v  c #296748",
"b  c #376847",
"n  c #397745",
"m  c #256356",
"M  c #2B7054",
"N  c #347656",
"B  c #1A4864",
"V  c #155B62",
"C  c #28526F",
"Z  c #326A72",
"A  c #48544E",
"S  c #444A57",
"D  c #43525C",
"F  c #4D535B",
"G  c #51585B",
"H  c #436945",
"J  c #457946",
"K  c #506654",
"L  c #66794F",
"P  c #475766",
"I  c #4D5369",
"U  c #555C67",
"Y  c #59666B",
"T  c #4A6773",
"R  c #586975",
"E  c #5C757B",
"W  c #656B78",
"Q  c #697171",
"!  c #6A7A79",
"~  c #39853C",
"^  c #48863A",
"/  c #588838",
"(  c #509034",
")  c #579539",
"_  c #738C34",
"`  c #639D3B",
"'  c #59A53B",
"]  c #71AE2F",
"[  c #67AA37",
"{  c #6BB53B",
"}  c #77B937",
"|  c #78C72A",
" . c #7AC339",
".. c #3A8655",
"X. c #358F54",
"o. c #1D8C67",
"O. c #328964",
"+. c #478746",
"@. c #568A45",
"#. c #4A9749",
"$. c #579646",
"%. c #478655",
"&. c #598A54",
"*. c #479755",
"=. c #569854",
"-. c #649947",
";. c #6C954E",
":. c #54AE4B",
">. c #59A848",
",. c #59A757",
"<. c #67A746",
"1. c #6BB644",
"2. c #78B946",
"3. c #66AB55",
"4. c #71B150",
"5. c #409362",
"6. c #78857B",
"7. c #50B164",
"8. c #73BB63",
"9. c #71C74D",
"0. c #67C360",
"q. c #84AC39",
"w. c #8BC730",
"e. c #89C538",
"r. c #8BD335",
"t. c #99D838",
"y. c #A0DB35",
"u. c #99E62E",
"i. c #A8E832",
"p. c #D1FD3F",
"a. c #929C5E",
"s. c #89B852",
"d. c #8DAC6D",
"f. c #86C849",
"g. c #93C74F",
"h. c #88D448",
"j. c #97D745",
"k. c #99D558",
"l. c #A6D846",
"z. c #AED556",
"x. c #A7DB57",
"c. c #99E54C",
"v. c #9DE355",
"b. c #AEED4F",
"n. c #B9EC48",
"m. c #BAE957",
"M. c #9ACC6D",
"N. c #B1D36B",
"B. c #BAE666",
"V. c #D2ED5E",
"C. c #C6F858",
"Z. c #D0F25C",
"A. c #D1ED6A",
"S. c #08178D",
"D. c #0F2892",
"F. c #2B3293",
"G. c #1726A9",
"H. c #0D31A9",
"J. c #413A88",
"K. c #174997",
"L. c #354B97",
"P. c #17629B",
"I. c #2B6D9B",
"U. c #1153B0",
"Y. c #2E4FAD",
"T. c #1971B5",
"R. c #2B70B0",
"E. c #577688",
"W. c #677883",
"Q. c #737C8B",
"!. c #4F73B1",
"~. c #6B74B1",
"^. c #0652CA",
"/. c #0F6DCE",
"(. c #2B76CD",
"). c #0077E4",
"_. c #4976CE",
"`. c #318BB4",
"'. c #5B898E",
"]. c #698888",
"[. c #768988",
"{. c #7B948B",
"}. c #7A8C97",
"|. c #669299",
" X c #769896",
".X c #7DA19D",
"XX c #5794B1",
"oX c #6C97AA",
"OX c #52A7BD",
"+X c #7FA8A3",
"@X c #7DB4AF",
"#X c #128FD9",
"$X c #2A8AD1",
"%X c #1DA8DC",
"&X c #0186EA",
"*X c #0F91E8",
"=X c #319CE7",
"-X c #0CB0EB",
";X c #33AAE6",
":X c #4291CE",
">X c #6F9CC8",
",X c #50AACE",
"<X c #74BBD7",
"1X c #47AAE1",
"2X c #46BBE5",
"3X c #0BCEF4",
"4X c #17CBF5",
"5X c #2BC7F2",
"6X c #2ECCF2",
"7X c #08ECFE",
"8X c #32EBFB",
"9X c #5BC8D8",
"0X c #4BCBEB",
"qX c #53D0F0",
"wX c #71D2EE",
"eX c #4FEDFB",
"rX c #6DEAF7",
"tX c #77F9FB",
"yX c #85998E",
"uX c #879290",
"iX c #839B96",
"pX c #8EA598",
"aX c #BCBE88",
"sX c #879AA4",
"dX c #88A7A5",
"fX c #88B4AA",
"gX c #93B1AE",
"hX c #98BBB4",
"jX c #A9B1B3",
"kX c #BAC682",
"lX c #98C5BE",
"zX c #A5C3BC",
"xX c #E0EB9A",
"cX c #87B3C9",
"vX c #94BDD3",
"bX c #92CBCD",
"nX c #AACBC6",
"mX c #B1D1CC",
"MX c #B2E7D4",
"NX c #8AD2F0",
"BX c #A1D5E9",
"VX c #90EDF8",
"CX c #98F4FB",
"ZX c #ABF7FB",
"AX c #B4F6FB",
"SX c #CBD0D1",
"DX c #C9E5DB",
"FX c #C4D2E2",
"GX c #D7EAEA",
"HX c #D0F1E9",
"JX c #C7FCFC",
"KX c #D6FFFE",
"LX c #E7FCFB",
"PX c #F4FDFD",
"IX c white",
/* pixels */
"x.N.k.m.] / } n.) e. .g.} C.J C.e.A.s.N.B.[ r.` @.n.) Z.u.z.m.b.e.) | f.;.x.l.t.",
"| n.t.j ) ] t.7 C.} ] e.} 2 l.{ r.} m.| K ) @.-.y.; l.] b. .l./ s.[ 2.0 [ ;.[ j.",
"r.n j.;.s.( J ^ $.<.} 0 [ r.8 =.} w.9 B.q { +.r.^ $.+.2.1.f.~ f.@.) H >.l.- { } ",
"f.B.- v 1.) [ ( f.l ) j. .k ; <.9 N.A.; >.) e.$.9 8 N 2.2.+.e.2 2.@.| 1.8 j 3.^ ",
"v ( %.^ ` 6 V.5 b @.` ) J ) +.%.@.4 g 9.0 ] 4 [ ^ b 1 +.@.J e.8 ` <.L 5 $.; J ) ",
"q + i.8 ( M.S A x G / < = q = * 1 3 i 3 l q a.j L 5 5 5 5 / * K G G G kX6 ^ f 2.",
"0 Z.e u.3 S pX, < MX* {.hXF gXiXS fXpXY T ].+X}.dXQ.! pXiXG ].mX< < hX: aXN | -.",
"y.4 ] ;.3 uX! E.}.X zXR j ! iX{.S ].P +X> Y [.U iX].S ].zX% mX1 E '., jX_ pXH $.",
"9 [ b =.< F I bXP sXhXQ Q {.[.{.x {. Xi E C [.!  XR W yXD i pXbXgXuXbX! / h.3.) ",
"` } >.c * Y bXZ cX. hXI.R.B `.`.- :X,XOXOXOX,XZ `.`.t `.,Xw SX, W.P D pXL N.v [ ",
"} ^ ) 0 : S A U # hX0X.   sX. X p s P.P.T.OXI.O t X @ @ dX. %XgX% : fX@ - v 1.^ ",
"[ f $.2.8 # R |.OX0X  Z KX  s rX;XU.;XrX6X$X$X$X,Xs . jXIXzXo ,XoX Xp X 9.3 k t.",
"4 V.; ( ) % i S R   # X $ I.VXU.JX>XJ.L.F.F.,XtX(.:XCXw dX  # . E i u @ + -. .d.",
"i.<.<.[ A.> S yXMX. + . K.<X%XFXa _.NX/.-X8X^.!.>XVXS.NXw t O t fXpX> i d.' } d.",
"` b p.+.m.u P {.HX. P !.<X(.HXa U.qX).KXBX(.G.S.~.D.JX$XqXw i t MX6.U > i.s.k.j.",
"0 i.w m.1.y U [.HX. # qX^.LXD.2X#XqXLX&X&X-X7XeX8XS.D.AXH.CXO t mX! W > n s.9.2.",
"} ..H =.>.p x .XhXo t H.JXI.(./.ZXrX/.3XJXLXPXKX5X5X*X~.-X<Xs B gX{.x , %.z 3. .",
") +.^ c 4.& F Y  X. wX/.GXa 8X#XrXNX3XPX*X&X&X5XVXBXH.a KXa wX+ pXF F : f.r =.#.",
"[ k N b &.i dX XHX$ I.;X:XL.#X5XtX&XPX3XtXtXtX4X*X*X8XG.vXU.L.z DX].+X& X.- =.%.",
"9 ' [ w z i Q R nXO XXqXF./.eXVX8X6XZXKXtXPX*XVXtX-XH.ZXS.0X2XB dXF Y , ^ =.e m ",
"( v.k 9.b p S ].MX+ 1X=X$XR.6XPX&XeXCXJXLX3XZX*XPX4XeXD.;X$XK.B gXyXY , 1.+.+.4 ",
";.5 +.` J d S Y bXw cXGXKXY.qXwX;X).LXtXLX3XZX4X0XVX2XU.BX/.,Xt hXT S i ^ @.J s.",
"k.xXH >.{ i Y R DX. 2X(.!.H.=X-XKX0X&X4X-XPX-XCX-XCX,Xa LX^.2Xt nXQ F > xXm <.l.",
"xX] M.K f.i [.dXjX. <XD.ZXwX#XeX6XJX4XeXPX3X*XLXqX6XF.R.AXF.C - hX.X]., n.a.+.q ",
" .l.{ k.J p D yXMXX w BX#X!.Y.5X=X7XeX6X-X^.JX6X(.BXD.KX;X;XW.B nX! T ,  .2.4.f.",
"~ g.Z.r 3.y P E bXo O ;X!.rXL.S./.*XwX^.$XKX0XCXG.S.AX=XP.C X B fXE.S , b.;.=.$.",
"x.g h 3.=.y F ! lX@ i $ R.NXwXXXR.;X;XZXrX#X4XD.D.bX5X9XK.|.O B  X6.F > h >.+.4.",
"X.c H -.=.> > x '.  # o nXs :X;XHXL.H.S./.(.a ~.JX^.ZXw   E.X - R u & & ..r 9.l.",
"8 +.n <.-.* GXDXGXGX  x SX+ E.`.H.6XNXVX%XZXtX#XY.VXy |.Z X o LXGXGXnXX b l -.b ",
"l 8 n.k 1 mX. iXj bXLX  $ # . O 2X`.$X2X1XK.U.`.r O : @ . X JXW.: i U dX5 n f f.",
"' C.2 h.1 S mXP P @ bXW Q.U }.Q.% FXSXSXSXSXSXjXW.W x sXcXu hXW.mXnXY iXL v r.<.",
"t.v 0 s.3 G P gXD E.gX].T ].].].x  XdXx P x  X|.fX X].+Xu S zXi }.R i uXq.d.^ +.",
"<.h.b *.1 hXj ].@Xx U E E.uX{.[.F .XI E..XT ].sXE dXR ].E.i gXo .X].$ pXq v.3.@.",
">.:.g c 1 O gXF Y P # P I y Y I u ! ].Y P '.! R F U i F U : # hXU U hXO a.N m w.",
"..9.N e 5.: $ # # : q $ : : & : % $ $ # # $ & $ : > # & & : 3 & # # # : V h 4.<.",
"9.r +.v.r e M e ..J <.=.+.r c.b ..N c z M k &.8.1.f v.$.v h.r J Z O.w M %.0 =.v ",
"d.;.f b ,.s.g...+.%.2.H @.<.8.$.C.g b k 2.w h.4.+.#.J =.&.B.z #.z ; #.l f 8.^ d.",
"9 Z.#.{ #.c.&.A.r <.@.n t.[ x.h.3 k.<.4.g Z.J 3.^ x.` v.n.K B.7 <.,...0 x.8 f.C.",
"x.j.b k.j.' m.c.8.k N h.9.v.h.9.&.g %.:.1.*.n %.c.~ v.h. .s.n.-.*...X.e.o.f.h.#.",
"9.V :.h X.0.:.:.,.7.,.M m M *...9.*.X.O...k 7.=.m V X.X.#.c.*.9.X.N M O.o.c *.9."
};
