/* XPM */
static char *_eafeddf56584ea0a2ec0988c47c13d8u1Vega2p2H1KZAOi[] = {
/* columns rows colors chars-per-pixel */
"40 40 243 2 ",
"   c #091E2C",
".  c #122739",
"X  c #0E3033",
"o  c #17373A",
"O  c #203337",
"+  c #5C2D1D",
"@  c #763A0F",
"#  c #642913",
"$  c #6D3716",
"%  c #733E18",
"&  c #6D3C20",
"*  c #1E4F3D",
"=  c #25463B",
"-  c #2F5532",
";  c #29563C",
":  c #17632B",
">  c #2A702E",
",  c #2C643A",
"<  c #37693A",
"1  c #3B793E",
"2  c #7A451A",
"3  c #7C461B",
"4  c #7A4826",
"5  c #477939",
"6  c #51733A",
"7  c #051344",
"8  c #0B2847",
"9  c #0D3445",
"0  c #173847",
"q  c #2E3B4D",
"w  c #1B4748",
"e  c #1B5544",
"r  c #0E4C55",
"t  c #1A5654",
"y  c #274B4B",
"u  c #334D42",
"i  c #2A5345",
"p  c #265A48",
"a  c #365C47",
"s  c #245754",
"d  c #305356",
"f  c #286746",
"g  c #386746",
"h  c #346B4D",
"j  c #3A7746",
"k  c #256456",
"l  c #396B55",
"z  c #27755A",
"x  c #377957",
"c  c #155B62",
"v  c #2C7364",
"b  c #484C57",
"n  c #446946",
"m  c #467846",
"M  c #457D4A",
"N  c #506E50",
"B  c #487853",
"V  c #597558",
"C  c #647F5B",
"Z  c #657765",
"A  c #864D1C",
"S  c #83501E",
"D  c #98591E",
"F  c #AE691F",
"G  c #824D24",
"H  c #8A5829",
"J  c #8C5C37",
"K  c #8F603B",
"L  c #93643D",
"P  c #BD7620",
"I  c #CF7A1A",
"U  c #D27D16",
"Y  c #9B6E46",
"T  c #3B863C",
"R  c #58942E",
"E  c #478738",
"W  c #4A843D",
"Q  c #568939",
"!  c #499538",
"~  c #569637",
"^  c #5B933C",
"/  c #659C38",
"(  c #639D3D",
")  c #4CA83E",
"_  c #5DA43A",
"`  c #6EAF2B",
"'  c #68A939",
"]  c #79A838",
"[  c #6AB738",
"{  c #76B839",
"}  c #7AC629",
"|  c #7CC23B",
" . c #79C53A",
".. c #3C8849",
"X. c #2D8B58",
"o. c #3A8755",
"O. c #399A5E",
"+. c #1D8C67",
"@. c #2B8565",
"#. c #3B8863",
"$. c #4B8345",
"%. c #4B8B43",
"&. c #44824C",
"*. c #4C8349",
"=. c #478B48",
"-. c #558746",
";. c #528C44",
":. c #4C954E",
">. c #4B9848",
",. c #549444",
"<. c #5C9443",
"1. c #569749",
"2. c #478855",
"3. c #588A55",
"4. c #479656",
"5. c #579955",
"6. c #658C46",
"7. c #659947",
"8. c #699A54",
"9. c #719551",
"0. c #5AA648",
"q. c #53AC4B",
"w. c #59A659",
"e. c #64A444",
"r. c #6BAC43",
"t. c #66A44B",
"y. c #68AA49",
"u. c #73AB49",
"i. c #6CB543",
"p. c #6DB649",
"a. c #79B947",
"s. c #74B34C",
"d. c #66AA54",
"f. c #75A958",
"g. c #69B253",
"h. c #75B954",
"j. c #409362",
"k. c #6F9167",
"l. c #50B164",
"z. c #6DB562",
"x. c #6BC449",
"c. c #79C548",
"v. c #66D14D",
"b. c #75C353",
"n. c #67C360",
"m. c #80BE3B",
"M. c #D2821D",
"N. c #CC8123",
"B. c #D58622",
"V. c #D78822",
"C. c #DC8B23",
"Z. c #DC963C",
"A. c #E18F23",
"S. c #88C638",
"D. c #91C934",
"F. c #8CD236",
"G. c #99D837",
"H. c #A0C63C",
"J. c #9BEA25",
"K. c #99E53C",
"L. c #A9E836",
"P. c #B2EF33",
"I. c #D1FD3F",
"U. c #81AB48",
"Y. c #85B949",
"T. c #8AAB57",
"R. c #89B957",
"E. c #94BA5A",
"W. c #A1BD50",
"Q. c #889573",
"!. c #8AA665",
"~. c #93BA68",
"^. c #91AF73",
"/. c #A7BC79",
"(. c #DE9C49",
"). c #C2A176",
"_. c #E8B36D",
"`. c #87C746",
"'. c #8BCB4A",
"]. c #95C948",
"[. c #88D448",
"{. c #96D746",
"}. c #87C857",
"|. c #97C758",
" X c #9AD558",
".X c #A3C64D",
"XX c #A6D945",
"oX c #A2C858",
"OX c #A6DA58",
"+X c #B7DA5C",
"@X c #9AE448",
"#X c #8DE856",
"$X c #9CE454",
"%X c #A6E843",
"&X c #B7EB49",
"*X c #B9F747",
"=X c #A8E857",
"-X c #B9E957",
";X c #BDFA5C",
":X c #9ACC6D",
">X c #94D761",
",X c #ADCF6D",
"<X c #B7DB65",
"1X c #B8E46A",
"2X c #BBEC6C",
"3X c #C5F757",
"4X c #CDF155",
"5X c #E5FD5B",
"6X c #C4D96E",
"7X c #C6E667",
"8X c #D3E860",
"9X c #D6F663",
"0X c #D1F16A",
"qX c #CBE873",
"wX c #97A782",
"eX c #B2B98D",
"rX c #AEB499",
"tX c #D2B28B",
"yX c #B2C592",
"uX c #BBC0A7",
"iX c #CECE96",
"pX c #EFC995",
"aX c #E4EF92",
"sX c #D6C7A1",
"dX c #D4D2A8",
"fX c #DED9B8",
"gX c #E7CCA6",
"hX c #E7D5A8",
"jX c #EDD3AB",
"kX c #F1D4AD",
"lX c #F3D8AB",
"zX c #E4DBB6",
"xX c #EDDCB3",
"cX c #F1DBB3",
"vX c #F4DAB5",
"bX c #E8E8A9",
"nX c #E3F2AB",
"mX c #E9E2B7",
"MX c #F5E3BB",
"NX c #DADDC7",
"BX c #EBE4C5",
"VX c #FBECCE",
"CX c #FBEDD5",
/* pixels */
"OX<X X-X` Q { &X^ D.| ].{ 3Xm 3XS.qXE.,X<X' F./ 6.*X~ 9XK.+X-X=XS.^ } `.6.OXXXG.",
"} &XG.u ~ ` G.> -X] ] m.{ = XX' S.{ W.H G Q -.7.G.o .X` &X .XXQ Y.' a.5 ' 9.' {.",
"F.j {.6.Y.R m W <.e.{ 5 ' F.< BXmXhX3 3 3 2 hXmXBX6.*.a.i.`.T S.-.~ n 0.%X. [ { ",
"'.+X. f p.^ ` Q `.u ^ ].|.fXhXjXkXgXY 3 3 Y jXkXkXjXsXE.U.%.S.* a.-.} i., u d.E ",
"f ! 2.E 7.: 8X- g -./ 6.k.hXkXkXkXkXgXL Y gXkXkXkXkXsXk.6.m D.< ( r.C - ,.o m ~ ",
"6   L.< Q aXn ! i 4XQ 6 Q.lXkXcXxXJ L H H L J xXcXkXgXQ.Q ] = `.E ~.Z aX: E y u.",
"5 5X9 J.s.1X].aXV >.< 6XlXkXBX& 4 3 3 3 3 3 3 4 & BXkXgX,X~ ] R u.-X0X<.bXh } 7.",
"G.* ` 6.&X! 5Xc.0XZ oXjXkXBX+ C.V.$ 2 3 3 2 $ V.C.+ BXkXjXT.F.6.OXG.'.<X%XwXm <.",
"j ` g 5.>.L.i G.' 1XxXkXcX& C.B.U C.N.% % N.C.U B.A.4 cXkXMX9.V 0.' {.%XF.[.d.^ ",
"/ { 0.t 4.=...,.7XmXkXkXxX4 V.I CXI B.C.C.B.I CXI V.4 xXkXkXmXB &.r.{ j oX,Xf ' ",
"{ W ~ 5 &.w &Xf d fXkXkXJ 2 U MXCXVXM.B.B.M.VXCXMXU % J kXkXhXl g ;.a.].0 f i.E ",
"` w ,.Y.g j 4.o rXN jXkXK 2 P I kXpXM.B.B.M.pXlXU P 2 J kXhXa uXs 5.9 z x.- p G.",
"; 8Xo ! ~ 8.!., f Y.gXkXL 3 2 F B.B.B.B.B.B.B.V.F 2 3 L kXlXq i g i w y   7.| Q.",
"L.u.u.e.qXOX`.nXN Z jXkXtXG 3 3 D V.B.(.(.B.C.D 3 A G tXkXkXaXm F.< g.y.^._ ] ^.",
"( g I.$.-XS.OXT.6XmXkXkXvX4 3 3 A D Z.MXvXZ.D 3 3 3 G lXkXkXxX7Xj {.] $.L.R. X{.",
"5 J.7 ;Xi.`.|.{.F.hXkXkXkXgX$ 3 3 A Z.VXVX(.A 3 3 $ hXkXkXkXmXr.h ,.<.S.j T.c.a.",
"{ =.n 5.0.i.F.=.f.MXcXjXkXkXBX# $ A C._._.C.A $ # BXkXkXkXcXxX6Xl ' 1.h &.y d.| ",
"~ =.E s u.j -X+XM rXT.gXkXkXkXBXBX# @ U U @ # BXMXkXkXkXhX+XiXp :.`.%.1 [.9 5.>.",
"' p x h 3.<.f f u.rX9.jXkXkXkXkXkXMXMXvXvXMXMXkXkXkXkXkXjX3.rXs.< ,.*.F.... 5.2.",
"5 _ ' 7 t h ; k . g T.jXkXkXkXkXkXkXkXkXkXkXkXkXkXkXkXkXjXb w g 2.r.{ u.W w.8 k ",
"! =Xp c.l w p j h OX9.gXkXkXkXkXkXkXkXkXkXkXkXkXkXkXkXkXsXV | m i.' |.y i.=.%.; ",
"8.- %./ M 9.-Xi e.oXs.^.jXkXkXkXkXkXkXkXkXkXkXkXkXkXkXjX/. X' M ].yXi iXE ;.M Y.",
"'.nXn 0.{ '.E 4X< =X, .XhXjXjXkXkXkXkXkXkXkXkXkXkXkXgXiX+XY.j t./ 2X5X~.iXk r.XX",
"aX` :XN '.*.`.p.1.Y.,.' yXE.xXkXkXkXkXkXkXkXkXkXkXxXT.eX= `.K./.{ {.OX~.&X!.=.6 ",
" .%X{  Xm g t.8.g XXy.( m -.fXkXkXkXkXkXkXkXkXkXkXmX7.N }.,.$.*.h.t.h.*X| a.f.`.",
"T |.9X0 d.c.f f k =Xy.7.b.i l BXkXkXkXkXkXkXkXkXNX2.2.1X`.4.'.x B t.0.,.=X8.5.<.",
"OXe t g.5.%.s.c.{ t H.M h h.9 w.NXkXkXkXkXkXkXNXS.l l g.e.a.z ^ 2.2.b.3.t 0.*.s.",
"..t n 7.5.0.[.i 3.p.t.Y.[ w x l 0 fXkXkXkXkXfX X:.j u x 7.2.*.8.a #.p w 2.0 c.XX",
"< $.j e.y...m M y.7.W >.,XE.j -.t a sXkXkXdX$.{ p 9X= :.*.-.7X< '.E d =.h g 7.h ",
"a < &Xp a.<XY.5 %.' Y.6.X  XB r.-.*.n tXtXN {.*.*X; u.a 7.U.w OXi.k.R.eX1 j y ].",
"_ 3X* [.a.`.3X1Xy 0.7.0.P.i `.p p.| E.S S H.3.h '.a. .p '.8.R.T R.2X<X>XyXf F.t.",
"G.f 5 R.{.[ 3X{. Xm s.s.~ :.t.p.{ x |.).).<X=XV m.j M 9X0 {.0.k.].G. X7X*X!.W $.",
"e.[.h 4.:.[.:.[.y.0Xj a.g }.h.<.n |.dXjXkXiXY.>X,.r.3.Y.%X1.$.8.4.s.'.%Xc.$Xf.-.",
"0.y.e s w.1.o.a.}.e }.$.x.K.e c.x d xXkXkXxX8Xr 0.x.}.:.i.h ! #.*.t.t.o.0Xx k S.",
"o.b.x 8 j.k ].v 8 x <.}.| x 3.0.*.5.xXcXkXzX0 p 1.@Xp g.p.f $Xr v 5.{.8.c r g.y.",
"x.9 *.$X0 9 z 8 o.M e.5.=.0 @Xh m l uXZ jXg 3.h.i.w $X1.f [.9 m v #.7 z 2.5 :.p ",
"!.8.w h w.E..Xo.:.2.s.n ,.y.z.,.3Xe a V xX0 '.g.%.:.m 5.3.7Xs :.y O :.a w h.E ~.",
"1 9X>.[ 1.@X3.qX0 y.;.j G.' OX[.;  Xt.!.Z 4Xm d.E  X( =X*XB 1X> y.w.o.5 =X< }.3X",
"OX{.g  X{.) -X@Xz.i x [.x.$X[.b.3.e 2.f.f.4.j &.@XT $X[. .}.&X7.4...O.S.+.`.[.>.",
"v.c q.r X.n.q.q.w.l.w.h k f j.o.v.4.X.@...a l.5.k c X.O.>.#X4.b.O.v l @.@.s w.x."
};
