/* XPM */
static char *_73d811bfa4b419ad334a37d29908f26tWYdUsfUjukYDrcS[] = {
/* columns rows colors chars-per-pixel */
"40 40 256 2 ",
"   c #0A193A",
".  c #101E35",
"X  c #0E273B",
"o  c #152B34",
"O  c #183538",
"+  c #223A35",
"@  c #1A453A",
"#  c #27483C",
"$  c #2C583A",
"%  c #315235",
"&  c #365B3B",
"*  c #2F683E",
"=  c #33643E",
"-  c #386939",
";  c #3B783A",
":  c #455F35",
">  c #466B3C",
",  c #4E7134",
"<  c #47783C",
"1  c #457D3D",
"2  c #0A1A43",
"3  c #0C2645",
"4  c #142843",
"5  c #163747",
"6  c #1B3A44",
"7  c #213743",
"8  c #1A4646",
"9  c #1D5849",
"0  c #0D4C55",
"q  c #1A4852",
"w  c #1D5856",
"e  c #254946",
"r  c #244C44",
"t  c #245443",
"y  c #2A5844",
"u  c #2C5D45",
"i  c #23554C",
"p  c #2C544B",
"a  c #235C4B",
"s  c #345D44",
"d  c #345C49",
"f  c #2D5355",
"g  c #275854",
"h  c #1D6245",
"j  c #2C6B45",
"k  c #2A6649",
"l  c #346344",
"z  c #3C6342",
"x  c #336B45",
"c  c #3C6A44",
"v  c #33634A",
"b  c #346B4B",
"n  c #3C684D",
"m  c #2C7447",
"M  c #3C7344",
"N  c #3B7449",
"B  c #387848",
"V  c #2A6B57",
"C  c #376A55",
"Z  c #2A7557",
"A  c #397655",
"S  c #237867",
"D  c #307061",
"F  c #466844",
"G  c #506B4F",
"H  c #437544",
"J  c #477747",
"K  c #4A7B44",
"L  c #427C4B",
"P  c #517947",
"I  c #487B53",
"U  c #587D56",
"Y  c #3F8B21",
"T  c #3D853C",
"R  c #4B892D",
"E  c #5A982F",
"W  c #49873A",
"Q  c #4D843D",
"!  c #57893B",
"~  c #5B8D3D",
"^  c #4D9438",
"/  c #589537",
"(  c #56933C",
")  c #62943B",
"_  c #6C903A",
"`  c #659B3A",
"'  c #5FA834",
"]  c #5AA53A",
"[  c #6FB22D",
"{  c #67A738",
"}  c #64AB3C",
"|  c #6CAC3C",
" . c #72A83A",
".. c #69B639",
"X. c #76B636",
"o. c #73B33B",
"O. c #74BA3B",
"+. c #7CBB3C",
"@. c #72C12E",
"#. c #7DC133",
"$. c #7AC63C",
"%. c #3D8646",
"&. c #3F9246",
"*. c #258459",
"=. c #3B8558",
"-. c #37955B",
";. c #3BA357",
":. c #398F66",
">. c #3EAF6A",
",. c #448443",
"<. c #448A42",
"1. c #4C8B42",
"2. c #45844C",
"3. c #4D834A",
"4. c #468949",
"5. c #4B8B4B",
"6. c #538343",
"7. c #528C43",
"8. c #588847",
"9. c #538B4C",
"0. c #5B8C4B",
"q. c #489446",
"w. c #559344",
"e. c #5C9544",
"r. c #549B44",
"t. c #5B9C43",
"y. c #55924D",
"u. c #5C934A",
"i. c #549B4C",
"p. c #5D9C4C",
"a. c #498755",
"s. c #4A8C53",
"d. c #52865B",
"f. c #4A9753",
"g. c #579857",
"h. c #688A47",
"j. c #649A46",
"k. c #799748",
"l. c #6A8B56",
"z. c #738851",
"x. c #699A55",
"c. c #779A57",
"v. c #4CA646",
"b. c #58A547",
"n. c #5CA349",
"m. c #59A557",
"M. c #56AE5A",
"N. c #64A443",
"B. c #6BAC45",
"V. c #64A44D",
"C. c #6BA34C",
"Z. c #66AA48",
"A. c #76AB47",
"S. c #6DB344",
"D. c #6BB34C",
"F. c #6ABA49",
"G. c #7BB545",
"H. c #74BA44",
"J. c #7DBB42",
"K. c #75B348",
"L. c #73BC4B",
"P. c #7DBA4D",
"I. c #66A755",
"U. c #79A959",
"Y. c #6BB759",
"T. c #75B856",
"R. c #489263",
"E. c #748E66",
"W. c #50AF64",
"Q. c #7AA868",
"!. c #69C545",
"~. c #7AC647",
"^. c #78CD53",
"/. c #7ADC5B",
"(. c #81AF39",
"). c #85BC3A",
"_. c #85CD29",
"`. c #93CF2A",
"'. c #8ED62C",
"]. c #87CB37",
"[. c #84C33C",
"{. c #97C937",
"}. c #8CD838",
"|. c #93D33D",
" X c #96DA39",
".X c #A3D63A",
"XX c #ADD43A",
"oX c #90E725",
"OX c #99E53B",
"+X c #A7E53B",
"@X c #B0F034",
"#X c #C5F935",
"$X c #83A945",
"%X c #86BB47",
"&X c #91BC4B",
"*X c #89A95A",
"=X c #92AD53",
"-X c #86B659",
";X c #829371",
":X c #8BA865",
">X c #95B664",
",X c #93B16F",
"<X c #9BAB77",
"1X c #A8B867",
"2X c #84C344",
"3X c #89CB47",
"4X c #8DCD45",
"5X c #84C24B",
"6X c #8BC54D",
"7X c #92C94B",
"8X c #97C849",
"9X c #88D746",
"0X c #94D543",
"qX c #94D34B",
"wX c #99DB48",
"eX c #8CC755",
"rX c #98C758",
"tX c #8CD657",
"yX c #97D656",
"uX c #A5DB47",
"iX c #A5C753",
"pX c #A7D759",
"aX c #B5DB5A",
"sX c #9BE648",
"dX c #96E952",
"fX c #A8EA48",
"gX c #B6E848",
"hX c #ACF64C",
"jX c #B9F747",
"kX c #ADE358",
"lX c #B6E858",
"zX c #BDF456",
"xX c #AFD16E",
"cX c #B8DA67",
"vX c #B8EA63",
"bX c #BCED6D",
"nX c #C5EB46",
"mX c #C4F84A",
"MX c #D9F74D",
"NX c #C4E95B",
"BX c #D1E25D",
"VX c #C9F45A",
"CX c #D6FB5A",
"ZX c #E6FC59",
"AX c #CADD77",
"SX c #C7EA67",
"DX c #D8F766",
"FX c #CBED77",
"GX c #D8F574",
"HX c #E8FB73",
"JX c #9EB297",
"KX c #BACF9A",
"LX c #D9F390",
"PX c #E7F18D",
"IX c #CDDCAC",
"UX c #ECF5AB",
/* pixels */
"7X-XvXSX[ R ).MX .{.].&X .VX& gX#.cXh.LXFX| ].~ , nXR DXfX8XuXaX).G.X.C.: SXgX_.",
"@.gX8X# ` #.+XR CX{. .{ X.M XX$.+.[ kX$.> | 0.j..X$ iX[ VX].8X~  .o.~ > $.:X| [.",
" X%.S.h.).E v - e.H.{ 1 _.@XR u.+.`.<.5X, } / OXQ N.m.0XwXwXT | 6.7.P ..+X. } X.",
"&XcXX c Z.~ #.^ wXz 1 {.}.s o e.K =XAX@ S./ ].r.- ; W.~.6Xb ].t A.j.oXO.$ + Z.W ",
"m ^ R.1 j.E BXO n F A.{ n X.( 9.2.@ @ tX! ` - / ( u O M w.K {.% ` B.% % 1.O - ] ",
"h.O .X< ( FX: <.p gX) > $ %Xy # s z o ^ H ` PX;XxX; 1 0.X.(.@ (./ -Xz.UXq.^ l G.",
", ZXu _.K.kX6XPXG Z.1 .X@Xj.c. .| ; MX$ ..! xXkXPXG v.( $X- _ { C.aXGX7.UXI { P ",
"XX- ` l.wX..DX7XcXE.%X! < +.- X.Q #X) $Xl.|.].uXVXxXE.t.@ o.OXk.pXuX2XaX@X:XJ 0.",
"j E & a.Z. Xt ].].bXQ uX_ ! mXH o.9.% y.h.D.].| |.9XY.{ |.|.h.l.r.{ uXOX}.wXp.( ",
"E }.b.a s.5.b.L DXF G.| v #X5 2XA.Q Y r x n.| O.A CXe J.{.* ! R.L S.O.,.-X1Xc { ",
"}.W 1 > 2.t gX# i r.(.) iX5 J [.1.1.O.l @ e.K nX3.g ,.%XW x +X=.v w.V.8X8 9 w.R ",
"' 5 M N.c f.M.  # 9.0.1. Xe |.).r OXb # n.A r.%.O g.5X9.= [ x M g y.4 -.!.# i @X",
"O VXO W 7.U.z.$ B ).# ..e.E S.l %X:XW ; 2.4 U e q.& > j.R HXe r l r 8 e o K J.E.",
"#Xk.h.B.xX6X[.LXh.s O.].! _ o.K +.Q AX:X* } J ..A.h.4X9.lXU mXj.| K P.B <XN.+.<X",
") $ nXw.pX+.eX=XPX,Xo.< c X.= fXE yXk.GXcXl 3XC.u gX8 LXnXc.iXHX4.4X6.G nX%XeX4X",
"> @X4 lXH.3XeXwX].8 5.1 `.  gX].+.U.qX$.8 yX7.( _.@ >X~.aXI |.7Xb w.` 0XB.*XL.O.",
"'.,.l B.V.H.0Xt.x.:XL  X& d <.n.| 0Xq.-X<X<.n $.N I F.i.t.qX; xXn N.B q b e m.[.",
"^ v ; b C.9.pXcX,.j | = ).T =.D.,.NXxXk %.N.3XJ.4.K =.T.< nXc.b 4.G.M ; 9X5 g.r.",
"/ t B b g.e.t j j.B N.OXj.2Xu I =.k j H.k 9.H.].z @.8 =.qXf.V 6XH u.K '.q.o I I ",
"= O.] 4 q d x :.O L $.6Xt ;   6 9 4 h e r.Z.V.g.` w.q L I 4 a N s.C.$.6.W M.5 D ",
"T VXq S.b g B %.i 6X| M MX) zX} @ * b.$ u.e.p.H @X6 u.k 6 f |.d S.H.C.6 H.y.x u ",
"P ! x { 3.1XDXM 1.aXU.6.] nXaXT xXIXT ; S.V.B.0.~.[.P 3.yXNXo.b 4X;X+ LX} 1.P 7X",
"~.UXF ( O.4XM MX@ lXc .XzX= J.H.kX^ UXp } 0.G.uXwXpX( Z.VXj.M ,.o.vXHX-XUXk e.|.",
"PX0Xc.P 5X3.7XwXH 7Xr.| W lXd..X..GXaX:XC qXB.6.OX2.} C.$ uXgXxX0XkXqXQ.mXl.1.` ",
"2X X#.-XK c P.c.r 0Xn.> t C.F F.0X9X3X#.-XL.5.hXb.I 3.z U.M z 9.V.p.K.zX9X/ -XN.",
"&.A.CXd i.N.u = g pXn.j.I.d p I.w.2.-XbXf g.I.5.g g.g.SXfXf.9Xg.a.V.D.B kX0.x.3.",
"pX9 w s.g.5.&XS.| a %XB %.D.r m.s.rXm a 5.V.n.M |.s.C R.q.$.=.w.B s.D.A A q.9.2X",
"v.g d j.a.D.9XX k q.5.&X$.8 s.C 5 v.g M A.q n gXN a.7 V A.s.m.G n :.8 i f.  L.G.",
"; w.K t.n.4.= 1.L.y.! b.>XcX<.w.w c c K.5 C.t.O.H SX+ b.p.l cX> 5Xw.5 &.B r 0.N ",
"O 1 uXM P.FXA.1.,.} 6XG = pXI t.< p.B JXyX6.%X8.wX$ N.p u.8.g 8XK.Q.cXKX5.b d uX",
"` CXs L.%X5XzXcX6 i.j.Z.@Xy 5Xd $.].yXbXkXlXU k 2X&X$.p G.J =Xr.T.xXaX^.<Xa o.6.",
"OXv - x.3XO.lXqX-XU.B.P.Q g.L.Z.{ g.yX3XrXGXeXl.].r.J NXe fXH.:XrXfXeXSXfX:Xw.1.",
"` 9Xi B m.3Xs.3XT.FX5.Q v kXtX6.n cXI.S.{ wXwXpXw.7.I yXgX8.M -Xa.K.qXsXwXlXU.7.",
"$.!.r w m.y.=.p.dXm I.1 [.gX9 ~.C C I.H.S.B SX0 D.sXyXA u.p ' W.3.V.K.Z SXI Z '.",
"f.C.V 5 =.V sXV 3 Z 1.6XOXV I p.n M.g.M.U.d.i 9 L.OXi D.J.%.wXS D g.%Xl.S 0 g.9.",
"~.8 H yXp i -.3 A I S.n.v.6 qXg / v g q 9 i x.m.Z.# 6Xr.u fXk l D =.2 Z g.> A v ",
"E.*XB x m.>X8X=.j I.G.= } w.^.( NXr # x p.q F.D.M i.H 2.c.aXG L e # m.p v U.1.,X",
"& ZX&.O.q.~.5.GX3 ^ J B +Xo.vXfX% eXK.~.k DXJ g.w.cXK.3XgXd SXT K.f.V x lXL P.vX",
"lXwX; T.9Xv.zXsXM.x V 5X$.lX0XI.l.9 s.b.!.f.x 2.wX] dXsX} U.jX$Xf.q.f.uX>.T.9Xv.",
"dX0 !.0 ;.^.F.F.Y./.m.d e 9 A g./.r.-.R.f.H W.s.w S *.-.q.hXY.tX;.V 9 *.*.i m.^."
};
