/* XPM */
static char *a6ec7411d3a447fcfc78525b95c2a3a5q6ptK8uytsx5y6IR[] = {
/* columns rows colors chars-per-pixel */
"40 40 254 2 ",
"   c #0A0D19",
".  c #27071B",
"X  c #050D24",
"o  c #05192A",
"O  c #12172D",
"+  c #031C33",
"@  c #051B37",
"#  c #271A2B",
"$  c #30182E",
"%  c #0C242A",
"&  c #072937",
"*  c #15283A",
"=  c #0A3539",
"-  c #173838",
";  c #2D2933",
":  c #213A34",
">  c #72111D",
",  c #491A2D",
"<  c #561726",
"1  c #5C1D29",
"2  c #6E1C2A",
"3  c #502631",
"4  c #0E4C35",
"5  c #1B4838",
"6  c #17543D",
"7  c #2D552F",
"8  c #25463A",
"9  c #26563A",
"0  c #197137",
"q  c #296833",
"w  c #356839",
"e  c #3B6B3C",
"r  c #39773B",
"t  c #4B673C",
"y  c #467839",
"u  c #547D3B",
"i  c #051344",
"p  c #092846",
"a  c #0D314C",
"s  c #063848",
"d  c #163A46",
"f  c #263644",
"g  c #7A3C42",
"h  c #09474B",
"j  c #194848",
"k  c #0E544A",
"l  c #18574A",
"z  c #094756",
"x  c #154C54",
"c  c #0E5857",
"v  c #145353",
"b  c #185957",
"n  c #274A49",
"m  c #265A48",
"M  c #355946",
"N  c #314E50",
"B  c #245B53",
"V  c #0B6749",
"C  c #196849",
"Z  c #176658",
"A  c #147052",
"S  c #296747",
"D  c #376946",
"F  c #287649",
"G  c #387647",
"H  c #236556",
"J  c #346851",
"K  c #267757",
"L  c #377955",
"P  c #115062",
"I  c #166E6F",
"U  c #256462",
"Y  c #2A7368",
"T  c #297778",
"R  c #4C524A",
"E  c #674944",
"W  c #446746",
"Q  c #457847",
"!  c #547353",
"~  c #66765C",
"^  c #6B7364",
"/  c #83252E",
"(  c #872632",
")  c #952F31",
"_  c #983A37",
"`  c #AC3A34",
"'  c #9C4D3E",
"]  c #AB483A",
"[  c #B74638",
"{  c #B65439",
"}  c #D14D37",
"|  c #CB673E",
" . c #974A44",
".. c #A46049",
"X. c #B3634B",
"o. c #D16C47",
"O. c #E77A4F",
"+. c #1E9134",
"@. c #2A8831",
"#. c #3A863B",
"$. c #3C983B",
"%. c #58942E",
"&. c #4A833C",
"*. c #498838",
"=. c #578B39",
"-. c #49973A",
";. c #579639",
":. c #649D3A",
">. c #4CA93F",
",. c #59A53C",
"<. c #6EAF2B",
"1. c #67AA38",
"2. c #79A838",
"3. c #69B539",
"4. c #76B839",
"5. c #78C72A",
"6. c #7AC63B",
"7. c #7BC33C",
"8. c #268548",
"9. c #3A8849",
"0. c #389548",
"q. c #2A8557",
"w. c #388956",
"e. c #2B9950",
"r. c #389557",
"t. c #3AA352",
"y. c #1D8C67",
"u. c #368A63",
"i. c #309266",
"p. c #4A8444",
"a. c #4B8B44",
"s. c #478749",
"d. c #558946",
"f. c #4A9648",
"g. c #5C9443",
"h. c #559648",
"j. c #478754",
"k. c #568A56",
"l. c #499757",
"z. c #569A55",
"x. c #668C46",
"c. c #669844",
"v. c #629B4B",
"b. c #749B48",
"n. c #6D9255",
"m. c #699954",
"M. c #47A447",
"N. c #5BAB44",
"B. c #59A64A",
"V. c #5AB646",
"C. c #4EAE52",
"Z. c #56A756",
"A. c #64A344",
"S. c #6BAC42",
"D. c #66A54B",
"F. c #67AB49",
"G. c #73AB49",
"H. c #6AB747",
"J. c #7DBD42",
"K. c #75B649",
"L. c #7DBD4B",
"P. c #64AD53",
"I. c #68A958",
"U. c #74A756",
"Y. c #66B554",
"T. c #6BB253",
"R. c #73BD53",
"E. c #7BB956",
"W. c #469467",
"Q. c #488873",
"!. c #6B976B",
"~. c #46A362",
"^. c #53A963",
"/. c #6CB465",
"(. c #7FB774",
"). c #6BC549",
"_. c #79C449",
"`. c #6CC954",
"'. c #77C755",
"]. c #71C363",
"[. c #81BD38",
"{. c #87C637",
"}. c #8BC730",
"|. c #8BD335",
" X c #98D837",
".X c #A0DB35",
"XX c #99E733",
"oX c #AAE737",
"OX c #AEEC31",
"+X c #D1FD3F",
"@X c #87B948",
"#X c #8CB255",
"$X c #89B757",
"%X c #8AA665",
"&X c #93BA68",
"*X c #8EB474",
"=X c #A7B96A",
"-X c #D5885D",
";X c #E6865E",
":X c #F3AD70",
">X c #8BCB43",
",X c #85C648",
"<X c #8BCB4A",
"1X c #95CB48",
"2X c #84D14B",
"3X c #8AD548",
"4X c #96D647",
"5X c #85C755",
"6X c #95C956",
"7X c #8AD457",
"8X c #99D559",
"9X c #A5D947",
"0X c #A3CB53",
"qX c #A6D957",
"wX c #B6DC5B",
"eX c #98E447",
"rX c #9CE553",
"tX c #A6E843",
"yX c #B6EB4A",
"uX c #B9F648",
"iX c #A6E758",
"pX c #B9EA57",
"aX c #BCF558",
"sX c #92CD6B",
"dX c #97D763",
"fX c #A8CA64",
"gX c #ACD46B",
"hX c #B6DB67",
"jX c #B9D776",
"kX c #BEE569",
"lX c #ADEB70",
"zX c #CDF455",
"xX c #C5F956",
"cX c #E4FC5A",
"vX c #CBE860",
"bX c #C7E968",
"nX c #CEF46F",
"mX c #D6F562",
"MX c #C8E976",
"NX c #298997",
"BX c #4FAF80",
"VX c #A1B286",
"CX c #8FCB8B",
"ZX c #B0D490",
"AX c #B6E392",
"SX c #B2D7B2",
"DX c #B8EEB8",
"FX c #CAD992",
"GX c #C9EE8B",
"HX c #E3F392",
"JX c #D2EDB5",
"KX c #E5ECA6",
"LX c #F3F5D8",
"PX c #F7FCEA",
/* pixels */
"qXhX8XpX<.=.4.yX;.{.7.1X4.xXQ xX{.bX&XjXkX1.|.:.x.uX;.mXXXwXpXyX{.;.5.,Xx.qX9X X",
"5.uX XM ;.<. Xq xX2.2.{.4.8 9X3.|.4.aX5.W h.d.c..X- 0X<.pX6.9X=.@X1.J.y 1.b.1.4X",
"|.G 1Xx.@X%.Q *.g.A.4.y 1.|.e h.4.}.r wXW S.a.|.=.g.p.J.H.,X#.>Xd.=.W N.tX* 3.4.",
"<XwX* S K.=.<.=.,XM =.1X6.m - F.e fXbX- N.;.[.h.y e L J.K.a.{.5 J.d.5.H.w n P.&.",
"S -.j.&.c.q vX7 D d.:.;.Q ;.p.j.a.9 j a.8 y 9 1.&.D : p.g.Q }.w :.S.~ 7 h.- Q ;.",
"u o oXe =.GXW -.l xX=.t 5 ,X8 8 M j R.dXAXB.M J #Xr e Q =.2.: >X*.&X~ KX0 *.n G.",
"y cXd XXG.hX1XHX! h.e oXoXe Q 5 d.GXJXgX4XJX2XF !.R f.&.,X;.2.%.G.pXnXg.KXJ 5.c.",
" X6 <.x.pX-.cX_.nX^  Xu 8 H.1.4.qX1XsXZXJ.AX0X4XL.K R 1.9 4.|.x.qX X<XhXtXVXQ g.",
"r <.D z.f.oXn XX1.nXw @XF 8.gXPXgX>X<XS.bXT.SX1.<X1X9.O 4.{.d.! N.1.4XtX|.>XI.;.",
"%.4.N.b l.s.9.h.bXn @X- -.>X/.<X6XMXR.GXJ.'.dXGX,XF.z.f.5 r *.L s.S.4.G fXfXS 1.",
"4.&.;.u s.j yXS j r = 9 L.P.*XdX5XkXR.2X].T.(.GX<XL.f.0 F 5 U.b D a.L.1Xd S H.*.",
"<.j h.@XD G l.* 9 ~.% 0.V 0.V.nXZ.0.qXV 2X9X7X0 0.,X-.r -.= !.p.B z.d K ).7 B  X",
"9 vX- -.;.m.%Xe j y f.k 9 C.M.B.R.B.4.B.N.B.-.Y.B.q.s.>.I.H.5 - D n j n o v.7.*X",
"OXG.b.A.MXqX@XN w.f.qX@XZ.+ C ^.F H.q '.e.r.F Z q.k T.5Xw.F.7XA : w T.D.*X,.2.*X",
":.D +Xp.pX>Xb.9 f.Z.,.E.(.T.C s T.s C.& k h 6 !.l b V.$.7XB.C F = >X2.p.oX$X8X4X",
"y OXi aXF.{.& 4 _.H.AXLXJX,Xf.F.r s p C.I.'.(.CXZXv.r.V.H.T.K f.G e g.{.G #X_.J.",
"4.s.W z.B.n P.h.V lXS.>X3XC 4Xr.9.B.`.sX+.PXGXZ.'.q.Y.8X0.F.N.C C & h.G s.N P.4.",
";.s.*.B G.@ G *.r.M.h.5X5XM.q.l.1.JXJXZX2X3.dXAX3.I.C.r.Z.R.Z.r.= j n r 2Xd z.f.",
"1.m L J k.z.S @ '.0.MXV q.7XA M.3X3XL.7XSX4XR.f._.7Xh A 7XK F Z o K Q }.0.* z.j.",
"y ,.1.i j S G j c H.C 2X6.w.w.C P.l.2X6.>.H.3.Y.q.Z _.N.q.K H + l m *.G.&.Z.p H ",
"-.iXm _.n G L + H F '.Z R.M.5 i.q.w.C.8.'.`.M.~.i.= q.`.F w.b @ p.J h n H.a.a.9 ",
"n.7 p.:.D T K z X Y V Y.q.P.W.o c sXP._.q.C ^.z = Q.w.S ~.Z X b 9.U d FX*.d.Q @X",
"7XKXW B.4.c.Y l = & l i.H l.k U d Y A r.r.A I - v Z Z F x o v H l k.cX&XFXH S.9X",
"HX<.sX! <Xp.% h x & I & c h b b x @ c h z Y + Z v s h b @ v k v c H qX&XyX%Xa.u ",
"6.tX4.8XQ D g.T j h & z % h h h + c & s & h h + c Z @ + x s x T U D.R.uX7.K.U.<X",
"#.6XzXd P._.D - T h s X 3 o + & = , o x = & * v # o & E % x I P ! D.B.h.iXn.z.g.",
"qXl x T.z.a.K.J.f NXs c # ) # + @ # 1 o $ $ * O 3 X _ $ z I p =.j.j.'.k.x B.s.G.",
"0.l W v.z.B.2Xn k.v.v.n w ; ) , f ; 2 2 < ( @ # ` ..E j Q.Q p.m.M u.m j j.d _.9X",
"w p.G A.D.9.Q Q F.v.&.M.gX$X^ ) ( ] / ) _ <  .] 2 wX8 f.a.d.bXD 1X*.N s.D M v.D ",
"M w yXm L.jX@Xy a.1.@Xx.= 8X! S.d.X / o.] ) [ O uX9 G.M v.@Xj qXK.!.#XVXr G n >X",
",.xX5 2XL.,XxXhXn B.c.B.uXm ,Xm H.4.) ` _ _ f J <XL.6.m <Xm.#X#.&XkXhXdXZXS |.D.",
" XS y $X4X3.xX4X8XQ G.K.;.h.D.T.1.L _ { | / @X! [.G Q zXd 1XN.n.1X4XdXbXuX%X&.p.",
"A.2XJ l.z.3Xf.2XD.nXG 4.D 5XR.g.Q R o.o.o.2 b.dXh.1.d.@XyXh.p.m.l.K.<XtX_.iXI.a.",
"N.F.j B I.h.L K.7Xl 5Xp.).XXl _.L ; } :X[ _ * z B.).5Xf.S.D -.u.s.D.D.w.mXL H }.",
"w.'.L p W.H 1XY p L g.5X6.L k.B.d., :Xo.| ( $ B h.eXm T.H.S rXc Y z.3X!.c h Y.D.",
").d p.rXf a K p w.Q A.z.s.d eXJ p.< -Xo.:X> , E.H.l rXh.S 3Xs Q Y W.i K j.y z.m ",
"%Xm.j D Z.$X0Xw.s.j.K.AX&.g.I.BXR LX] :X> O.1 % l.x G j.k.wXn d.N : f.M j E.a.&X",
"r mXf.3.h.eXk.=X/.G J 9.0 0 e.  ;X[ < :X/ o.[ < 6 t.8.6 t.4 l.j.C Z.q.y iXw 5XxX",
"qX4XD 6X4X>.DX].].@.M.-.-.#.# :XX., ..2 ;X  2 ] [ . M.-.@.JX@.@.lXk.r.{.y.5X3XM.",
").c V.z e.D CXW.JX$.N.H.C.m  .; O ' { O g -X$ O 3 g l V.SXAXZ.(.N.$.B q.y.B ~.`."
};
